<svg width="224" height="66" viewBox="0 0 224 66" fill="none" xmlns="http://www.w3.org/2000/svg"><path fill-rule="evenodd" clip-rule="evenodd" d="M221.619 61.9612v-5.1716c0-1.4038-.603-2.0687-1.884-2.0687-1.056 0-1.885.5172-2.261 1.256v6.0582h-1.583v-5.541c0-1.0344-.603-1.7732-1.884-1.7732-.98 0-1.809.5172-2.261 1.1821v6.1321h-1.583V53.465h1.583v1.1082c.603-.7388 1.733-1.256 2.864-1.256 1.356 0 2.336.591 2.637 1.4776.603-.8866 1.734-1.4776 3.09-1.4776 1.583 0 2.789.7388 2.789 3.103v5.6149h-1.507v-.0739zm-3.09-25.341c1.432 0 2.487-.5911 3.165-1.1082l1.131 2.7336c-1.056.8865-2.94 1.6992-5.201 1.6992-4.522 0-6.33-2.8075-6.33-7.9052V14.1605h3.617v5.541h7.461v3.3246h-7.461v8.6441c0 3.1768 1.055 4.95 3.618 4.95zm-13.491-25.1194c-2.562 0-4.07 1.6253-4.07 5.3194v2.8074h6.783v3.3247h-6.783v16.6231h-3.617V16.4508c0-5.5411 2.638-8.2747 7.16-8.2747 2.411 0 4.371.8127 5.426 1.7732l-1.281 2.7336c-.905-.7388-2.111-1.1821-3.618-1.1821zM201.421 57.75c0 2.5858-1.885 4.4329-4.673 4.4329-2.789 0-4.673-1.9209-4.673-4.4329 0-2.5858 1.884-4.4328 4.673-4.4328 2.788-.0739 4.673 1.847 4.673 4.4328zm-4.673-3.103c-1.734 0-3.015 1.256-3.015 3.0291 0 1.7732 1.281 3.0292 3.015 3.0292 1.733 0 3.014-1.1821 3.014-3.0292 0-1.7731-1.281-3.0291-3.014-3.0291zm-6.783-4.7283c-1.131 0-1.734.7388-1.734 2.2903v1.1821h2.94v1.4776h-2.94v7.1664h-1.582v-9.9739c0-2.3642 1.13-3.5462 3.09-3.5462 1.055 0 1.884.3694 2.336.7388l-.527 1.182c-.377-.2955-.905-.5171-1.583-.5171zm-2.563-12.8552c-1.205 1.4776-3.165 2.8813-6.481 2.8813-3.693 0-6.255-2.2903-6.255-6.1321 0-4.0634 3.316-6.3537 7.687-6.3537 1.583 0 3.693.2955 5.049 1.256 0-3.6941-.603-6.2799-4.597-6.2799-2.487 0-3.994.591-5.577 1.4776l-.98-2.8074c1.809-1.1083 4.221-1.8471 6.783-1.8471 5.803 0 7.763 2.9553 7.763 8.1269v12.1903h-3.392v-2.5119zm0-5.3933c-1.281-.8866-2.788-1.3299-4.522-1.3299-2.185 0-4.295.9605-4.295 3.2508 0 1.9209 1.281 3.1768 3.617 3.1768 2.638 0 4.221-1.4037 5.2-2.5858v-2.5119zm-10.325 25.0455v5.2455h-1.507V60.853c-.528.6649-1.357 1.256-2.789 1.256-1.582 0-2.637-.9605-2.637-2.6597 0-1.7732 1.431-2.7336 3.316-2.7336.678 0 1.582.1478 2.185.5172 0-1.6254-.226-2.7336-1.959-2.7336-1.055 0-1.734.2955-2.412.591l-.377-1.1821c.754-.4433 1.809-.8127 2.939-.8127 2.337.1478 3.241 1.4038 3.241 3.6202zm-3.467 1.256c-.904 0-1.884.4433-1.884 1.4037 0 .8127.528 1.3299 1.583 1.3299 1.13 0 1.809-.5911 2.261-1.1083v-1.0343c-.528-.3694-1.206-.591-1.96-.591zm-4.974-35.315c-2.336 0-3.467 1.4038-4.22 2.8075v14.1112h-3.618V19.7015h3.618v2.3642c1.055-1.4776 2.487-2.7336 5.125-2.7336 1.658 0 2.487.2955 3.165.7388l-1.281 3.3247c-.98-.5911-1.508-.7389-2.789-.7389zm-10.325 39.5262c-.904 0-1.809-.2217-2.487-.5911v4.2112h-1.583V53.465h1.583v1.0343c.603-.6649 1.733-1.1821 2.939-1.1821 2.487 0 3.995 1.7731 3.995 4.3589.15 2.512-1.658 4.5068-4.447 4.5068zm.075-7.5359c-1.055 0-1.959.5172-2.487 1.1821v4.2112c.754.5172 1.508.665 2.337.665 1.884 0 3.014-1.3299 3.014-3.103 0-1.6993-1.055-2.9553-2.864-2.9553zm-11.757-18.1746c3.015 0 5.879-1.0343 8.064-2.7336l1.508 2.8075c-2.11 2.1425-6.03 3.4724-9.949 3.4724-9.496 0-15.977-6.2799-15.977-15.9582 0-8.8657 5.878-15.9582 15.751-15.9582 4.07 0 7.311 1.1082 9.572 3.0291l-1.734 2.8074c-2.11-1.4776-4.522-2.2903-7.762-2.2903-6.859 0-11.757 5.0239-11.757 12.412 0 7.4619 4.974 12.4119 12.284 12.4119zM132.46 53.2433c2.789 0 4.673 1.9209 4.673 4.4328 0 2.5859-1.884 4.4329-4.673 4.4329-2.788 0-4.672-1.9209-4.672-4.4329 0-2.5119 1.884-4.4328 4.672-4.4328zm0 7.5358c1.734 0 3.015-1.1821 3.015-3.0291 0-1.7731-1.281-3.0291-3.015-3.0291-1.733 0-3.014 1.256-3.014 3.0291 0 1.7732 1.281 3.0291 3.014 3.0291zm-10.325-24.1589c1.432 0 2.487-.5911 3.166-1.1082l1.13 2.7336c-1.055.8865-2.939 1.6992-5.2 1.6992-4.522 0-6.331-2.8075-6.331-7.9052V14.1605h3.618v5.541h7.461v3.3246h-7.461v8.6441c0 3.1768.979 4.95 3.617 4.95zm-9.873 24.3067c-.527.6649-1.356 1.256-2.788 1.256-1.583 0-2.638-.9605-2.638-2.6597 0-1.7732 1.432-2.7336 3.316-2.7336.678 0 1.583.1477 2.186.5171 0-1.6253-.226-2.7335-1.96-2.7335-1.055 0-1.733.2955-2.412.591l-.376-1.1821c.753-.4433 1.808-.8127 2.939-.8127 2.487 0 3.316 1.256 3.316 3.4724v5.2455h-1.507v-.9604h-.076zm0-2.3642c-.527-.3694-1.206-.591-1.959-.591-.905 0-1.884.4433-1.884 1.4037 0 .8127.527 1.3299 1.582 1.3299 1.131 0 1.809-.5911 2.261-1.1083v-1.0343zm-4.371-35.906c-2.336 0-3.467 1.4038-4.22 2.8075v14.1112h-3.6934V19.7015h3.6174v2.3642c1.055-1.4776 2.487-2.7336 5.125-2.7336 1.658 0 2.487.2955 3.165.7388l-1.281 3.3247c-.98-.5911-1.507-.7389-2.713-.7389zm-6.029 30.5866c1.432 0 2.638.2955 3.467 1.1082l-.754 1.1821c-.754-.6649-1.583-.8866-2.487-.8866-1.583 0-3.0148 1.256-3.0148 3.0291 0 1.8471 1.4318 3.0292 3.1658 3.0292 1.055 0 1.884-.4433 2.487-1.1083l.753 1.1083c-.753.9604-2.035 1.4037-3.316 1.4037-2.7884 0-4.6725-1.7731-4.6725-4.4329-.0754-2.438 1.8088-4.4328 4.3715-4.4328zM87.919 30.1926H73.524l-3.9944 9.3828h-3.8437l13.566-31.1776h3.3161l13.5659 31.1776h-4.0698l-4.1451-9.3828zm-7.1598-16.7709l-5.6525 13.2246h11.305l-5.6525-13.2246zm-35.196 41.3731c-.2261.2216-.6783.1478-.6783.1478s-2.8639-.7388-6.783-1.5515c-6.18-1.3299-15.9776-3.3985-23.8911-4.8023-7.009-1.2559-12.6615-2.7335-12.6615-2.7335s-.9798-.1478-1.3566-.9605c-.3015-.591.4522-2.0687.4522-2.0687s1.5073-2.8813 2.1856-5.3194c.3769-1.4037-.1507-2.5858-.1507-2.5858s3.09 1.4038 7.8381 2.9552c5.5771 1.9209 13.0383 4.2851 19.7459 6.3538 10.1745 3.3246 14.6964 5.0977 14.6964 5.0977s.603.1478.7537.7388c.3768 1.0344 0 4.0635 0 4.0635s.0754.5171-.1507.6649zm-4.8235-8.8657c-4.1451-1.4037-10.3251-3.3985-16.5052-5.3933-7.9134-2.5858-14.0181-4.5067-18.7662-6.3537C2.4537 33 .871 31.8918.871 31.8918s-.9044-.591-.5276-1.1082c.7537-.8866 1.5074-1.4776 2.3364-2.1425.5275-.4433 1.2058-.9605 1.5827-1.4776.829-1.1082.5275-2.9553.5275-2.9553s2.864 3.1769 7.3859 5.6888c7.612 4.2851 13.1891 6.0583 13.1891 6.0583s-7.0844-3.1769-12.5861-7.0926c-3.7683-2.6597-6.7076-5.6149-8.0642-7.4619-1.432-1.9948-.6783-2.8814.4522-3.7679 1.432-1.1821 3.919-2.0687 3.919-2.0687s1.2059 3.8418 6.3308 8.644c3.4668 3.2508 7.9888 6.4276 13.3398 9.0874 5.351 2.6597 10.6266 4.5805 13.9428 7.5358 3.1653 2.8074 2.8639 6.797 2.8639 6.797s-2.0349-.7388-4.8235-1.6993zM10.9701 14.0127c0-3.103 4.6727-6.6492 10.8527-9.8261C25.8926 2.1179 29.8116.788 29.8116.788v30.956s-7.8381-3.6202-13.1137-8.8657c-3.3915-3.3246-5.7278-6.5754-5.7278-8.8657zM4.4132 51.3224c.1507-1.6254-.3768-2.8813-.3768-2.8813S14.8137 50.5836 26.1187 52.8c4.9742.9605 10.2498 1.9948 13.8674 2.8814 2.7132.591 4.5219 1.1082 4.5219 1.1082s.6783.1477.9044.591c.0754.0739.0754.2955.1508.5911.0753.591.0753 1.5515-.0754 1.9947 0 .1478-.0754.2956-.2261.5172-.3015.2955-.7537.2217-.7537.2217L4.3378 57.0112s-.5275 0-.829-.3694c-.226-.2216.0754-1.0343.0754-1.0343s.603-2.0687.829-4.2851zm4.0698 7.9052s20.1228 1.5515 29.6943 2.4381c2.9393.2955 5.2002.5172 5.2002.5172s.0754.2216 0 .5171c0 .4433-.1507.9605-.6029.9605-2.6378 0-10.0991-.0739-17.6357 0H9.2366c-.9043 0-.7536-1.3299-.7536-1.3299v-3.103zM70.66 53.2433c2.261 0 4.0698 1.5515 4.0698 3.9157 0 .4433-.0754.7388-.0754 1.0343h-6.7076c.1508 1.6254 1.3566 2.5858 3.0147 2.5858 1.1305 0 2.1102-.3694 2.6378-.8865l.4522 1.1821c-.829.7388-2.1103 1.1082-3.2407 1.1082-2.864 0-4.6728-1.7732-4.6728-4.4329 0-2.5119 1.6581-4.5067 4.522-4.5067zm2.4117 3.694c-.0753-1.4037-.9797-2.2903-2.487-2.2903-1.5827 0-2.5625.9605-2.7886 2.2903h5.2756zm7.9135-3.694c.9044 0 1.5827.2217 2.1856.5911v-5.1717h1.5827v13.2985h-1.5827V60.853c-.6029.6649-1.5827 1.256-2.7885 1.256-2.5625 0-4.2205-1.6993-4.2205-4.359.0753-2.6597 2.0348-4.5067 4.8234-4.5067zm-.3015 7.462c.9798 0 1.9595-.5172 2.4871-1.1083v-4.2112c-.7537-.4432-1.4319-.6649-2.1856-.6649-1.7334 0-3.1654 1.1821-3.1654 3.0291.0754 1.847 1.2812 2.9553 2.8639 2.9553zm8.2149-2.512c0 1.6254.6783 2.5858 2.261 2.5858.9798 0 1.9596-.591 2.4871-1.2559V53.465h1.5827v8.5701h-1.5827v-1.256c-.6029.7388-1.7334 1.4038-3.09 1.4038-1.9595 0-3.2407-1.1082-3.2407-3.6202V53.465h1.5826v4.7283zm28.7903-4.7283h3.165v1.4037h-3.165v3.694c0 1.3299.452 2.1426 1.582 2.1426.603 0 1.055-.2217 1.357-.4433l.452 1.1821c-.452.3694-1.281.7388-2.261.7388-1.959 0-2.713-1.1821-2.713-3.3985v-7.7575h1.583v2.4381zm6.783-4.1374c.452 0 .979.3694.979.8866 0 .591-.452.9605-.979.9605-.528 0-.98-.3695-.98-.9605-.076-.5172.377-.8866.98-.8866zm.678 12.6336h-1.583V53.465h1.583v8.4962zm15.751-7.4619c.603-.6649 1.734-1.1821 2.864-1.1821 2.261 0 3.618 1.1082 3.618 3.7679v4.95H145.8v-4.6545c0-1.7731-.829-2.6597-2.487-2.6597-.98 0-1.884.4433-2.487 1.1082v6.206h-1.583V53.465h1.583v1.0343h.075zm25.776 4.5067c0 1.1821.301 1.6993 1.055 1.6993.452 0 .829-.2217 1.13-.3695l.377 1.1821c-.452.3694-1.13.665-2.035.665-1.281 0-1.959-.8127-1.959-2.4381V48.6627h1.582V59.006h-.15zm14.319-5.541h3.166v1.4037h-3.166v3.694c0 1.3299.452 2.1426 1.583 2.1426.603 0 1.055-.2217 1.357-.4433l.452 1.1821c-.452.3694-1.281.7388-2.261.7388-1.96 0-2.713-1.1821-2.713-3.3985v-7.7575h1.582v2.4381zm24.193.9604c.452-.6649 1.055-1.1821 2.185-1.1821.754 0 1.056.1478 1.357.2955l-.528 1.4038c-.452-.2217-.678-.2956-1.205-.2956-.98 0-1.508.5911-1.809 1.1821v6.0582h-1.583V53.465h1.583v.9604z" fill="#000"/></svg>
